<mxfile host="app.diagrams.net" modified="2023-02-04T21:37:09.317Z" agent="5.0 (Macintosh; Intel Mac OS X 10_15_7) AppleWebKit/537.36 (KHTML, like Gecko) Chrome/107.0.0.0 Safari/537.36" etag="zrnAxdqOPB29O_irM9bd" version="20.8.15" type="github">
  <diagram name="Page-1" id="oUNNQ1qMh4tGgLTOTxzl">
    <mxGraphModel dx="840" dy="582" grid="1" gridSize="10" guides="1" tooltips="1" connect="1" arrows="1" fold="1" page="1" pageScale="1" pageWidth="850" pageHeight="1100" math="0" shadow="0">
      <root>
        <mxCell id="0" />
        <mxCell id="1" parent="0" />
        <mxCell id="EgybinkTdiLRkmSKWudw-2" value="Author" style="rounded=0;whiteSpace=wrap;html=1;" parent="1" vertex="1">
          <mxGeometry x="110" y="100" width="120" height="60" as="geometry" />
        </mxCell>
        <mxCell id="EgybinkTdiLRkmSKWudw-6" value="&lt;u&gt;email_ID&lt;/u&gt;" style="ellipse;whiteSpace=wrap;html=1;" parent="1" vertex="1">
          <mxGeometry x="20" y="110" width="60" height="30" as="geometry" />
        </mxCell>
        <mxCell id="EgybinkTdiLRkmSKWudw-7" value="first_name" style="ellipse;whiteSpace=wrap;html=1;" parent="1" vertex="1">
          <mxGeometry x="90" y="40" width="60" height="30" as="geometry" />
        </mxCell>
        <mxCell id="EgybinkTdiLRkmSKWudw-8" value="last_name" style="ellipse;whiteSpace=wrap;html=1;" parent="1" vertex="1">
          <mxGeometry x="190" y="40" width="60" height="30" as="geometry" />
        </mxCell>
        <mxCell id="EgybinkTdiLRkmSKWudw-12" value="has a" style="rhombus;whiteSpace=wrap;html=1;" parent="1" vertex="1">
          <mxGeometry x="280" y="115" width="80" height="80" as="geometry" />
        </mxCell>
        <mxCell id="EgybinkTdiLRkmSKWudw-14" value="Paper" style="rounded=0;whiteSpace=wrap;html=1;" parent="1" vertex="1">
          <mxGeometry x="420" y="120" width="120" height="65" as="geometry" />
        </mxCell>
        <mxCell id="EgybinkTdiLRkmSKWudw-20" value="abstract" style="ellipse;whiteSpace=wrap;html=1;" parent="1" vertex="1">
          <mxGeometry x="520" y="65" width="60" height="30" as="geometry" />
        </mxCell>
        <mxCell id="EgybinkTdiLRkmSKWudw-21" value="title" style="ellipse;whiteSpace=wrap;html=1;" parent="1" vertex="1">
          <mxGeometry x="380" y="65" width="60" height="30" as="geometry" />
        </mxCell>
        <mxCell id="EgybinkTdiLRkmSKWudw-28" value="e_file" style="ellipse;whiteSpace=wrap;html=1;" parent="1" vertex="1">
          <mxGeometry x="450" y="65" width="60" height="30" as="geometry" />
        </mxCell>
        <mxCell id="EgybinkTdiLRkmSKWudw-31" value="&lt;u&gt;paper_ID&lt;/u&gt;" style="ellipse;whiteSpace=wrap;html=1;dashed=1;" parent="1" vertex="1">
          <mxGeometry x="450" y="10" width="60" height="30" as="geometry" />
        </mxCell>
        <mxCell id="EgybinkTdiLRkmSKWudw-34" value="" style="endArrow=classic;html=1;rounded=0;exitX=0.5;exitY=1;exitDx=0;exitDy=0;entryX=0.5;entryY=0;entryDx=0;entryDy=0;" parent="1" source="EgybinkTdiLRkmSKWudw-31" target="EgybinkTdiLRkmSKWudw-21" edge="1">
          <mxGeometry width="50" height="50" relative="1" as="geometry">
            <mxPoint x="360" y="170" as="sourcePoint" />
            <mxPoint x="410" y="120" as="targetPoint" />
          </mxGeometry>
        </mxCell>
        <mxCell id="EgybinkTdiLRkmSKWudw-36" value="" style="endArrow=classic;html=1;rounded=0;exitX=0.5;exitY=1;exitDx=0;exitDy=0;entryX=0.5;entryY=0;entryDx=0;entryDy=0;" parent="1" source="EgybinkTdiLRkmSKWudw-31" target="EgybinkTdiLRkmSKWudw-28" edge="1">
          <mxGeometry width="50" height="50" relative="1" as="geometry">
            <mxPoint x="360" y="170" as="sourcePoint" />
            <mxPoint x="410" y="120" as="targetPoint" />
          </mxGeometry>
        </mxCell>
        <mxCell id="EgybinkTdiLRkmSKWudw-37" value="" style="endArrow=classic;html=1;rounded=0;exitX=0.5;exitY=1;exitDx=0;exitDy=0;entryX=0.5;entryY=0;entryDx=0;entryDy=0;" parent="1" source="EgybinkTdiLRkmSKWudw-31" target="EgybinkTdiLRkmSKWudw-20" edge="1">
          <mxGeometry width="50" height="50" relative="1" as="geometry">
            <mxPoint x="360" y="170" as="sourcePoint" />
            <mxPoint x="410" y="120" as="targetPoint" />
          </mxGeometry>
        </mxCell>
        <mxCell id="EgybinkTdiLRkmSKWudw-44" value="" style="edgeStyle=none;orthogonalLoop=1;jettySize=auto;html=1;rounded=0;exitX=1;exitY=0;exitDx=0;exitDy=0;entryX=0.5;entryY=1;entryDx=0;entryDy=0;" parent="1" source="EgybinkTdiLRkmSKWudw-14" target="EgybinkTdiLRkmSKWudw-20" edge="1">
          <mxGeometry width="80" relative="1" as="geometry">
            <mxPoint x="590" y="130" as="sourcePoint" />
            <mxPoint x="670" y="130" as="targetPoint" />
            <Array as="points" />
          </mxGeometry>
        </mxCell>
        <mxCell id="EgybinkTdiLRkmSKWudw-45" value="" style="edgeStyle=none;orthogonalLoop=1;jettySize=auto;html=1;rounded=0;exitX=0.5;exitY=0;exitDx=0;exitDy=0;entryX=0.5;entryY=1;entryDx=0;entryDy=0;" parent="1" source="EgybinkTdiLRkmSKWudw-14" target="EgybinkTdiLRkmSKWudw-28" edge="1">
          <mxGeometry width="80" relative="1" as="geometry">
            <mxPoint x="610" y="130" as="sourcePoint" />
            <mxPoint x="690" y="130" as="targetPoint" />
            <Array as="points" />
          </mxGeometry>
        </mxCell>
        <mxCell id="EgybinkTdiLRkmSKWudw-46" value="" style="edgeStyle=none;orthogonalLoop=1;jettySize=auto;html=1;rounded=0;entryX=0.5;entryY=1;entryDx=0;entryDy=0;exitX=0;exitY=0;exitDx=0;exitDy=0;" parent="1" source="EgybinkTdiLRkmSKWudw-14" target="EgybinkTdiLRkmSKWudw-21" edge="1">
          <mxGeometry width="80" relative="1" as="geometry">
            <mxPoint x="390" y="120" as="sourcePoint" />
            <mxPoint x="470" y="120" as="targetPoint" />
            <Array as="points" />
          </mxGeometry>
        </mxCell>
        <mxCell id="EgybinkTdiLRkmSKWudw-47" value="Reviewer" style="rounded=0;whiteSpace=wrap;html=1;" parent="1" vertex="1">
          <mxGeometry x="140" y="360" width="120" height="60" as="geometry" />
        </mxCell>
        <mxCell id="EgybinkTdiLRkmSKWudw-48" value="requires a" style="rhombus;whiteSpace=wrap;html=1;" parent="1" vertex="1">
          <mxGeometry x="310" y="230" width="80" height="80" as="geometry" />
        </mxCell>
        <mxCell id="EgybinkTdiLRkmSKWudw-52" value="&lt;u&gt;email_ID&lt;/u&gt;" style="ellipse;whiteSpace=wrap;html=1;" parent="1" vertex="1">
          <mxGeometry x="30" y="375" width="60" height="30" as="geometry" />
        </mxCell>
        <mxCell id="EgybinkTdiLRkmSKWudw-55" value="first_name" style="ellipse;whiteSpace=wrap;html=1;" parent="1" vertex="1">
          <mxGeometry x="70" y="450" width="60" height="30" as="geometry" />
        </mxCell>
        <mxCell id="EgybinkTdiLRkmSKWudw-56" value="&lt;font style=&quot;font-size: 10px;&quot;&gt;phone_num&lt;/font&gt;" style="ellipse;whiteSpace=wrap;html=1;" parent="1" vertex="1">
          <mxGeometry x="250" y="450" width="60" height="30" as="geometry" />
        </mxCell>
        <mxCell id="EgybinkTdiLRkmSKWudw-57" value="last_name" style="ellipse;whiteSpace=wrap;html=1;" parent="1" vertex="1">
          <mxGeometry x="150" y="460" width="60" height="30" as="geometry" />
        </mxCell>
        <mxCell id="EgybinkTdiLRkmSKWudw-58" value="affiliation" style="ellipse;whiteSpace=wrap;html=1;" parent="1" vertex="1">
          <mxGeometry x="110" y="300" width="60" height="30" as="geometry" />
        </mxCell>
        <mxCell id="EgybinkTdiLRkmSKWudw-61" value="interests" style="ellipse;shape=doubleEllipse;margin=3;whiteSpace=wrap;html=1;align=center;fontSize=10;" parent="1" vertex="1">
          <mxGeometry x="210" y="300" width="70" height="30" as="geometry" />
        </mxCell>
        <mxCell id="EgybinkTdiLRkmSKWudw-71" value="reviewers" style="ellipse;shape=doubleEllipse;margin=3;whiteSpace=wrap;html=1;align=center;fontSize=10;" parent="1" vertex="1">
          <mxGeometry x="630" y="169" width="70" height="30" as="geometry" />
        </mxCell>
        <mxCell id="EgybinkTdiLRkmSKWudw-73" value="authors" style="ellipse;shape=doubleEllipse;margin=3;whiteSpace=wrap;html=1;align=center;fontSize=10;" parent="1" vertex="1">
          <mxGeometry x="590" y="115" width="70" height="30" as="geometry" />
        </mxCell>
        <mxCell id="EgybinkTdiLRkmSKWudw-74" value="&lt;font style=&quot;font-size: 11px;&quot;&gt;contact_author&lt;/font&gt;" style="ellipse;whiteSpace=wrap;html=1;" parent="1" vertex="1">
          <mxGeometry x="600" y="68" width="80" height="30" as="geometry" />
        </mxCell>
        <mxCell id="EgybinkTdiLRkmSKWudw-76" value="" style="edgeStyle=none;orthogonalLoop=1;jettySize=auto;html=1;rounded=0;fontSize=11;exitX=1;exitY=0.25;exitDx=0;exitDy=0;entryX=0;entryY=0.5;entryDx=0;entryDy=0;" parent="1" source="EgybinkTdiLRkmSKWudw-14" target="EgybinkTdiLRkmSKWudw-74" edge="1">
          <mxGeometry width="80" relative="1" as="geometry">
            <mxPoint x="580" y="130" as="sourcePoint" />
            <mxPoint x="660" y="130" as="targetPoint" />
            <Array as="points" />
          </mxGeometry>
        </mxCell>
        <mxCell id="EgybinkTdiLRkmSKWudw-77" value="" style="edgeStyle=none;orthogonalLoop=1;jettySize=auto;html=1;rounded=0;fontSize=11;exitX=1;exitY=0.5;exitDx=0;exitDy=0;entryX=0;entryY=0.5;entryDx=0;entryDy=0;" parent="1" source="EgybinkTdiLRkmSKWudw-14" target="EgybinkTdiLRkmSKWudw-73" edge="1">
          <mxGeometry width="80" relative="1" as="geometry">
            <mxPoint x="550" y="160" as="sourcePoint" />
            <mxPoint x="630" y="160" as="targetPoint" />
            <Array as="points" />
          </mxGeometry>
        </mxCell>
        <mxCell id="EgybinkTdiLRkmSKWudw-90" value="" style="edgeStyle=none;orthogonalLoop=1;jettySize=auto;html=1;rounded=0;fontSize=11;exitX=1;exitY=1;exitDx=0;exitDy=0;entryX=0;entryY=0.5;entryDx=0;entryDy=0;" parent="1" source="EgybinkTdiLRkmSKWudw-14" target="EgybinkTdiLRkmSKWudw-71" edge="1">
          <mxGeometry width="80" relative="1" as="geometry">
            <mxPoint x="560" y="200" as="sourcePoint" />
            <mxPoint x="580" y="180" as="targetPoint" />
            <Array as="points" />
          </mxGeometry>
        </mxCell>
        <mxCell id="EgybinkTdiLRkmSKWudw-93" value="" style="edgeStyle=none;orthogonalLoop=1;jettySize=auto;html=1;rounded=0;fontSize=11;entryX=0.5;entryY=0;entryDx=0;entryDy=0;exitX=0.5;exitY=1;exitDx=0;exitDy=0;" parent="1" source="EgybinkTdiLRkmSKWudw-94" target="EgybinkTdiLRkmSKWudw-95" edge="1">
          <mxGeometry width="80" relative="1" as="geometry">
            <mxPoint x="600" y="300" as="sourcePoint" />
            <mxPoint x="568" y="320" as="targetPoint" />
            <Array as="points" />
          </mxGeometry>
        </mxCell>
        <mxCell id="EgybinkTdiLRkmSKWudw-94" value="rates" style="ellipse;whiteSpace=wrap;html=1;dashed=1;" parent="1" vertex="1">
          <mxGeometry x="540" y="255" width="60" height="30" as="geometry" />
        </mxCell>
        <mxCell id="EgybinkTdiLRkmSKWudw-95" value="categories" style="ellipse;whiteSpace=wrap;html=1;" parent="1" vertex="1">
          <mxGeometry x="495" y="310" width="60" height="30" as="geometry" />
        </mxCell>
        <mxCell id="EgybinkTdiLRkmSKWudw-96" value="readability" style="ellipse;whiteSpace=wrap;html=1;" parent="1" vertex="1">
          <mxGeometry x="535" y="376" width="60" height="30" as="geometry" />
        </mxCell>
        <mxCell id="EgybinkTdiLRkmSKWudw-97" value="originality" style="ellipse;whiteSpace=wrap;html=1;" parent="1" vertex="1">
          <mxGeometry x="455" y="376" width="60" height="30" as="geometry" />
        </mxCell>
        <mxCell id="EgybinkTdiLRkmSKWudw-98" value="relevance" style="ellipse;whiteSpace=wrap;html=1;" parent="1" vertex="1">
          <mxGeometry x="425" y="340" width="60" height="30" as="geometry" />
        </mxCell>
        <mxCell id="EgybinkTdiLRkmSKWudw-99" value="technical merit" style="ellipse;whiteSpace=wrap;html=1;" parent="1" vertex="1">
          <mxGeometry x="565" y="335" width="70" height="35" as="geometry" />
        </mxCell>
        <mxCell id="EgybinkTdiLRkmSKWudw-100" value="" style="edgeStyle=none;orthogonalLoop=1;jettySize=auto;html=1;rounded=0;fontSize=11;exitX=0;exitY=0.5;exitDx=0;exitDy=0;entryX=1;entryY=0;entryDx=0;entryDy=0;" parent="1" source="EgybinkTdiLRkmSKWudw-95" target="EgybinkTdiLRkmSKWudw-98" edge="1">
          <mxGeometry width="80" relative="1" as="geometry">
            <mxPoint x="585" y="365" as="sourcePoint" />
            <mxPoint x="665" y="365" as="targetPoint" />
            <Array as="points" />
          </mxGeometry>
        </mxCell>
        <mxCell id="EgybinkTdiLRkmSKWudw-104" value="" style="edgeStyle=none;orthogonalLoop=1;jettySize=auto;html=1;rounded=0;fontSize=11;exitX=1;exitY=1;exitDx=0;exitDy=0;entryX=0.5;entryY=0;entryDx=0;entryDy=0;" parent="1" source="EgybinkTdiLRkmSKWudw-95" target="EgybinkTdiLRkmSKWudw-96" edge="1">
          <mxGeometry width="80" relative="1" as="geometry">
            <mxPoint x="535" y="345" as="sourcePoint" />
            <mxPoint x="615" y="345" as="targetPoint" />
            <Array as="points" />
          </mxGeometry>
        </mxCell>
        <mxCell id="EgybinkTdiLRkmSKWudw-105" value="" style="edgeStyle=none;orthogonalLoop=1;jettySize=auto;html=1;rounded=0;fontSize=11;exitX=0;exitY=1;exitDx=0;exitDy=0;entryX=0.5;entryY=0;entryDx=0;entryDy=0;" parent="1" source="EgybinkTdiLRkmSKWudw-95" target="EgybinkTdiLRkmSKWudw-97" edge="1">
          <mxGeometry width="80" relative="1" as="geometry">
            <mxPoint x="515" y="355" as="sourcePoint" />
            <mxPoint x="595" y="355" as="targetPoint" />
            <Array as="points" />
          </mxGeometry>
        </mxCell>
        <mxCell id="EgybinkTdiLRkmSKWudw-106" value="" style="edgeStyle=none;orthogonalLoop=1;jettySize=auto;html=1;rounded=0;fontSize=11;exitX=1;exitY=0.5;exitDx=0;exitDy=0;entryX=0;entryY=0;entryDx=0;entryDy=0;" parent="1" source="EgybinkTdiLRkmSKWudw-95" target="EgybinkTdiLRkmSKWudw-99" edge="1">
          <mxGeometry width="80" relative="1" as="geometry">
            <mxPoint x="575" y="325" as="sourcePoint" />
            <mxPoint x="635" y="325" as="targetPoint" />
            <Array as="points" />
          </mxGeometry>
        </mxCell>
        <mxCell id="EgybinkTdiLRkmSKWudw-107" value="" style="edgeStyle=none;orthogonalLoop=1;jettySize=auto;html=1;rounded=0;fontSize=11;exitX=0;exitY=0.5;exitDx=0;exitDy=0;entryX=1;entryY=0.5;entryDx=0;entryDy=0;" parent="1" source="EgybinkTdiLRkmSKWudw-2" target="EgybinkTdiLRkmSKWudw-6" edge="1">
          <mxGeometry width="80" relative="1" as="geometry">
            <mxPoint x="100" y="110" as="sourcePoint" />
            <mxPoint x="180" y="110" as="targetPoint" />
            <Array as="points" />
          </mxGeometry>
        </mxCell>
        <mxCell id="EgybinkTdiLRkmSKWudw-108" value="" style="edgeStyle=none;orthogonalLoop=1;jettySize=auto;html=1;rounded=0;fontSize=11;exitX=0.25;exitY=0;exitDx=0;exitDy=0;entryX=0.5;entryY=1;entryDx=0;entryDy=0;" parent="1" source="EgybinkTdiLRkmSKWudw-2" target="EgybinkTdiLRkmSKWudw-7" edge="1">
          <mxGeometry width="80" relative="1" as="geometry">
            <mxPoint x="110" y="70" as="sourcePoint" />
            <mxPoint x="190" y="70" as="targetPoint" />
            <Array as="points" />
          </mxGeometry>
        </mxCell>
        <mxCell id="EgybinkTdiLRkmSKWudw-109" value="" style="edgeStyle=none;orthogonalLoop=1;jettySize=auto;html=1;rounded=0;fontSize=11;exitX=0.75;exitY=0;exitDx=0;exitDy=0;entryX=0.5;entryY=1;entryDx=0;entryDy=0;" parent="1" source="EgybinkTdiLRkmSKWudw-2" target="EgybinkTdiLRkmSKWudw-8" edge="1">
          <mxGeometry width="80" relative="1" as="geometry">
            <mxPoint x="200" y="90" as="sourcePoint" />
            <mxPoint x="250" y="80" as="targetPoint" />
            <Array as="points" />
          </mxGeometry>
        </mxCell>
        <mxCell id="EgybinkTdiLRkmSKWudw-110" value="comments" style="ellipse;whiteSpace=wrap;html=1;dashed=1;" parent="1" vertex="1">
          <mxGeometry x="680" y="255" width="60" height="30" as="geometry" />
        </mxCell>
        <mxCell id="EgybinkTdiLRkmSKWudw-114" value="review committee" style="ellipse;whiteSpace=wrap;html=1;" parent="1" vertex="1">
          <mxGeometry x="660" y="310" width="80" height="40" as="geometry" />
        </mxCell>
        <mxCell id="EgybinkTdiLRkmSKWudw-115" value="feedback" style="ellipse;whiteSpace=wrap;html=1;" parent="1" vertex="1">
          <mxGeometry x="750" y="305" width="60" height="30" as="geometry" />
        </mxCell>
        <mxCell id="EgybinkTdiLRkmSKWudw-116" value="" style="edgeStyle=none;orthogonalLoop=1;jettySize=auto;html=1;rounded=0;fontSize=11;exitX=0.5;exitY=1;exitDx=0;exitDy=0;entryX=0.5;entryY=0;entryDx=0;entryDy=0;" parent="1" source="EgybinkTdiLRkmSKWudw-110" target="EgybinkTdiLRkmSKWudw-114" edge="1">
          <mxGeometry width="80" relative="1" as="geometry">
            <mxPoint x="740" y="290" as="sourcePoint" />
            <mxPoint x="820" y="290" as="targetPoint" />
            <Array as="points" />
          </mxGeometry>
        </mxCell>
        <mxCell id="EgybinkTdiLRkmSKWudw-117" value="" style="edgeStyle=none;orthogonalLoop=1;jettySize=auto;html=1;rounded=0;fontSize=11;exitX=1;exitY=0.5;exitDx=0;exitDy=0;entryX=0.5;entryY=0;entryDx=0;entryDy=0;" parent="1" source="EgybinkTdiLRkmSKWudw-110" target="EgybinkTdiLRkmSKWudw-115" edge="1">
          <mxGeometry width="80" relative="1" as="geometry">
            <mxPoint x="760" y="260" as="sourcePoint" />
            <mxPoint x="840" y="260" as="targetPoint" />
            <Array as="points" />
          </mxGeometry>
        </mxCell>
        <mxCell id="EgybinkTdiLRkmSKWudw-118" value="M" style="text;html=1;align=center;verticalAlign=middle;resizable=0;points=[];autosize=1;strokeColor=none;fillColor=none;fontSize=11;" parent="1" vertex="1">
          <mxGeometry x="241" y="115" width="30" height="30" as="geometry" />
        </mxCell>
        <mxCell id="EgybinkTdiLRkmSKWudw-119" value="N" style="text;html=1;align=center;verticalAlign=middle;resizable=0;points=[];autosize=1;strokeColor=none;fillColor=none;fontSize=11;" parent="1" vertex="1">
          <mxGeometry x="370" y="130" width="30" height="30" as="geometry" />
        </mxCell>
        <mxCell id="EgybinkTdiLRkmSKWudw-120" value="M" style="text;html=1;align=center;verticalAlign=middle;resizable=0;points=[];autosize=1;strokeColor=none;fillColor=none;fontSize=11;" parent="1" vertex="1">
          <mxGeometry x="290" y="360" width="30" height="30" as="geometry" />
        </mxCell>
        <mxCell id="EgybinkTdiLRkmSKWudw-121" value="N" style="text;html=1;align=center;verticalAlign=middle;resizable=0;points=[];autosize=1;strokeColor=none;fillColor=none;fontSize=11;" parent="1" vertex="1">
          <mxGeometry x="455" y="220" width="30" height="30" as="geometry" />
        </mxCell>
        <mxCell id="JjYBNZdYaYo9qUoJnRbx-1" value="&lt;div style=&quot;text-align: center;&quot;&gt;&lt;span style=&quot;background-color: initial;&quot;&gt;My entity-relationship diagram has three main entities, Authors, Papers, and Reviewers.&lt;/span&gt;&lt;/div&gt;&lt;div style=&quot;text-align: center;&quot;&gt;&lt;span style=&quot;background-color: initial;&quot;&gt;There can be many authors for many different papers and vice versa.&lt;/span&gt;&lt;/div&gt;&lt;div style=&quot;text-align: center;&quot;&gt;&lt;span style=&quot;background-color: initial;&quot;&gt;There can be many reviewers for many different papers and vice versa.&lt;/span&gt;&lt;/div&gt;&lt;div style=&quot;text-align: center;&quot;&gt;The authors have attributes: last name, first name, and a unique key of &lt;u&gt;email_id&lt;/u&gt;.&lt;/div&gt;&lt;div style=&quot;text-align: center;&quot;&gt;The author has a paper. A paper has a title, electronic file name, an abstract.&lt;/div&gt;&lt;div style=&quot;text-align: center;&quot;&gt;The paper also has a unique key that is derived from these three attributes.&lt;/div&gt;&lt;div style=&quot;text-align: center;&quot;&gt;A paper also has multiple authors, and multiple reviewers.&lt;/div&gt;&lt;div style=&quot;text-align: center;&quot;&gt;The rate of the paper is derived from the reviewer and it is based off of the categories.&lt;/div&gt;&lt;div style=&quot;text-align: center;&quot;&gt;The categories are a composite attribute with technical merit, originality,&lt;/div&gt;&lt;div style=&quot;text-align: center;&quot;&gt;&amp;nbsp;readability, and relevance to the conference.&lt;/div&gt;&lt;div style=&quot;text-align: center;&quot;&gt;The comments of the paper are also derived from the reviewers.&lt;/div&gt;&lt;div style=&quot;text-align: center;&quot;&gt;The comments are a composite attribute of review committee, and author feedback.&lt;/div&gt;&lt;div style=&quot;text-align: center;&quot;&gt;The paper also requires a reviewer and vice versa.&lt;/div&gt;&lt;div style=&quot;text-align: center;&quot;&gt;The reviewer has a multivariable attribute of topic interests.&lt;/div&gt;&lt;div style=&quot;text-align: center;&quot;&gt;As well as other attributes: affiliation, first name, last name, and phone number.&lt;/div&gt;&lt;div style=&quot;text-align: center;&quot;&gt;They reviewer has a unique key of &lt;u&gt;email_id&lt;/u&gt;.&lt;/div&gt;&lt;div style=&quot;text-align: center;&quot;&gt;&lt;br&gt;&lt;/div&gt;" style="text;html=1;align=left;verticalAlign=middle;resizable=0;points=[];autosize=1;strokeColor=none;fillColor=none;" vertex="1" parent="1">
          <mxGeometry x="200" y="540" width="490" height="260" as="geometry" />
        </mxCell>
        <mxCell id="JjYBNZdYaYo9qUoJnRbx-2" value="" style="line;strokeWidth=1;rotatable=0;dashed=0;labelPosition=right;align=left;verticalAlign=middle;spacingTop=0;spacingLeft=6;points=[];portConstraint=eastwest;" vertex="1" parent="1">
          <mxGeometry x="260" y="385" width="90" height="10" as="geometry" />
        </mxCell>
        <mxCell id="JjYBNZdYaYo9qUoJnRbx-9" value="" style="endArrow=none;html=1;rounded=0;exitX=1;exitY=0.5;exitDx=0;exitDy=0;exitPerimeter=0;entryX=0.5;entryY=1;entryDx=0;entryDy=0;" edge="1" parent="1" source="JjYBNZdYaYo9qUoJnRbx-2" target="EgybinkTdiLRkmSKWudw-48">
          <mxGeometry width="50" height="50" relative="1" as="geometry">
            <mxPoint x="330" y="330" as="sourcePoint" />
            <mxPoint x="380" y="280" as="targetPoint" />
          </mxGeometry>
        </mxCell>
        <mxCell id="JjYBNZdYaYo9qUoJnRbx-10" value="" style="endArrow=none;html=1;rounded=0;entryX=0.5;entryY=1;entryDx=0;entryDy=0;" edge="1" parent="1" target="EgybinkTdiLRkmSKWudw-14">
          <mxGeometry width="50" height="50" relative="1" as="geometry">
            <mxPoint x="480" y="270" as="sourcePoint" />
            <mxPoint x="380" y="280" as="targetPoint" />
          </mxGeometry>
        </mxCell>
        <mxCell id="JjYBNZdYaYo9qUoJnRbx-11" value="" style="endArrow=none;html=1;rounded=0;exitX=1;exitY=0.5;exitDx=0;exitDy=0;" edge="1" parent="1" source="EgybinkTdiLRkmSKWudw-48">
          <mxGeometry width="50" height="50" relative="1" as="geometry">
            <mxPoint x="330" y="330" as="sourcePoint" />
            <mxPoint x="480" y="270" as="targetPoint" />
          </mxGeometry>
        </mxCell>
        <mxCell id="JjYBNZdYaYo9qUoJnRbx-12" value="" style="endArrow=none;html=1;rounded=0;exitX=1;exitY=0.5;exitDx=0;exitDy=0;entryX=0;entryY=0.5;entryDx=0;entryDy=0;" edge="1" parent="1" source="EgybinkTdiLRkmSKWudw-2" target="EgybinkTdiLRkmSKWudw-12">
          <mxGeometry width="50" height="50" relative="1" as="geometry">
            <mxPoint x="320" y="290" as="sourcePoint" />
            <mxPoint x="370" y="240" as="targetPoint" />
          </mxGeometry>
        </mxCell>
        <mxCell id="JjYBNZdYaYo9qUoJnRbx-13" value="" style="endArrow=none;html=1;rounded=0;entryX=0;entryY=0.5;entryDx=0;entryDy=0;exitX=1;exitY=0.5;exitDx=0;exitDy=0;" edge="1" parent="1" source="EgybinkTdiLRkmSKWudw-12" target="EgybinkTdiLRkmSKWudw-14">
          <mxGeometry width="50" height="50" relative="1" as="geometry">
            <mxPoint x="320" y="290" as="sourcePoint" />
            <mxPoint x="370" y="240" as="targetPoint" />
          </mxGeometry>
        </mxCell>
        <mxCell id="JjYBNZdYaYo9qUoJnRbx-14" value="" style="edgeStyle=none;orthogonalLoop=1;jettySize=auto;html=1;rounded=0;exitX=1;exitY=1;exitDx=0;exitDy=0;entryX=0.5;entryY=0;entryDx=0;entryDy=0;" edge="1" parent="1" source="EgybinkTdiLRkmSKWudw-47" target="EgybinkTdiLRkmSKWudw-56">
          <mxGeometry width="80" relative="1" as="geometry">
            <mxPoint x="240" y="430" as="sourcePoint" />
            <mxPoint x="320" y="430" as="targetPoint" />
            <Array as="points" />
          </mxGeometry>
        </mxCell>
        <mxCell id="JjYBNZdYaYo9qUoJnRbx-15" value="" style="edgeStyle=none;orthogonalLoop=1;jettySize=auto;html=1;rounded=0;exitX=0.5;exitY=1;exitDx=0;exitDy=0;entryX=0.5;entryY=0;entryDx=0;entryDy=0;" edge="1" parent="1" source="EgybinkTdiLRkmSKWudw-47" target="EgybinkTdiLRkmSKWudw-57">
          <mxGeometry width="80" relative="1" as="geometry">
            <mxPoint x="160" y="430" as="sourcePoint" />
            <mxPoint x="240" y="430" as="targetPoint" />
            <Array as="points" />
          </mxGeometry>
        </mxCell>
        <mxCell id="JjYBNZdYaYo9qUoJnRbx-16" value="" style="edgeStyle=none;orthogonalLoop=1;jettySize=auto;html=1;rounded=0;exitX=0;exitY=1;exitDx=0;exitDy=0;entryX=0.5;entryY=0;entryDx=0;entryDy=0;" edge="1" parent="1" source="EgybinkTdiLRkmSKWudw-47" target="EgybinkTdiLRkmSKWudw-55">
          <mxGeometry width="80" relative="1" as="geometry">
            <mxPoint x="140" y="430" as="sourcePoint" />
            <mxPoint x="220" y="430" as="targetPoint" />
            <Array as="points" />
          </mxGeometry>
        </mxCell>
        <mxCell id="JjYBNZdYaYo9qUoJnRbx-17" value="" style="edgeStyle=none;orthogonalLoop=1;jettySize=auto;html=1;rounded=0;exitX=0;exitY=0.5;exitDx=0;exitDy=0;entryX=1;entryY=0.5;entryDx=0;entryDy=0;" edge="1" parent="1" source="EgybinkTdiLRkmSKWudw-47" target="EgybinkTdiLRkmSKWudw-52">
          <mxGeometry width="80" relative="1" as="geometry">
            <mxPoint x="100" y="410" as="sourcePoint" />
            <mxPoint x="180" y="410" as="targetPoint" />
            <Array as="points" />
          </mxGeometry>
        </mxCell>
        <mxCell id="JjYBNZdYaYo9qUoJnRbx-18" value="" style="edgeStyle=none;orthogonalLoop=1;jettySize=auto;html=1;rounded=0;entryX=0.5;entryY=1;entryDx=0;entryDy=0;exitX=0.25;exitY=0;exitDx=0;exitDy=0;" edge="1" parent="1" source="EgybinkTdiLRkmSKWudw-47" target="EgybinkTdiLRkmSKWudw-58">
          <mxGeometry width="80" relative="1" as="geometry">
            <mxPoint x="110" y="360" as="sourcePoint" />
            <mxPoint x="190" y="360" as="targetPoint" />
            <Array as="points" />
          </mxGeometry>
        </mxCell>
        <mxCell id="JjYBNZdYaYo9qUoJnRbx-19" value="" style="edgeStyle=none;orthogonalLoop=1;jettySize=auto;html=1;rounded=0;exitX=0.75;exitY=0;exitDx=0;exitDy=0;entryX=0.5;entryY=1;entryDx=0;entryDy=0;" edge="1" parent="1" source="EgybinkTdiLRkmSKWudw-47" target="EgybinkTdiLRkmSKWudw-61">
          <mxGeometry width="80" relative="1" as="geometry">
            <mxPoint x="190" y="330" as="sourcePoint" />
            <mxPoint x="300" y="340" as="targetPoint" />
            <Array as="points" />
          </mxGeometry>
        </mxCell>
        <mxCell id="JjYBNZdYaYo9qUoJnRbx-20" value="" style="edgeStyle=none;orthogonalLoop=1;jettySize=auto;html=1;rounded=0;exitX=0.5;exitY=0;exitDx=0;exitDy=0;entryX=0;entryY=1;entryDx=0;entryDy=0;" edge="1" parent="1" source="EgybinkTdiLRkmSKWudw-94" target="EgybinkTdiLRkmSKWudw-71">
          <mxGeometry width="80" relative="1" as="geometry">
            <mxPoint x="600" y="240" as="sourcePoint" />
            <mxPoint x="680" y="240" as="targetPoint" />
            <Array as="points" />
          </mxGeometry>
        </mxCell>
        <mxCell id="JjYBNZdYaYo9qUoJnRbx-21" value="" style="edgeStyle=none;orthogonalLoop=1;jettySize=auto;html=1;rounded=0;exitX=0.5;exitY=0;exitDx=0;exitDy=0;entryX=1;entryY=1;entryDx=0;entryDy=0;" edge="1" parent="1" source="EgybinkTdiLRkmSKWudw-110" target="EgybinkTdiLRkmSKWudw-71">
          <mxGeometry width="80" relative="1" as="geometry">
            <mxPoint x="720" y="230" as="sourcePoint" />
            <mxPoint x="800" y="230" as="targetPoint" />
            <Array as="points" />
          </mxGeometry>
        </mxCell>
      </root>
    </mxGraphModel>
  </diagram>
</mxfile>
